<svg xmlns="http://www.w3.org/2000/svg" xmlns:xlink="http://www.w3.org/1999/xlink" viewBox="0 0 1024 361.44"><defs><clipPath id="a"><rect x="-28.84" y="-105.64" width="1052.84" height="473.31" style="fill:none"/></clipPath></defs><title>Artboard 42 copy</title><rect x="-17.88" y="-36.79" width="1057.77" height="373.32" style="fill:#b3e7ff;opacity:0.4"/><g style="clip-path:url(#a)"><path d="M1082.37,569.46c-44.63,14-48.45-11-95.22-11s-46.77,11.23-93.54,11.23-46.77-11.23-93.55-11.23-46.77,11.23-93.54,11.23S659.75,558.49,613,558.49s-46.77,11.23-93.54,11.23-46.78-11.23-93.55-11.23-46.77,11.23-93.55,11.23-46.77-11.23-93.54-11.23S192,569.72,145.24,569.72s-46.78-11.23-93.56-11.23-50.59,25-95.23,11c-14-4.38,7.29-20,7.29-34.65s-11.22-14.65-11.22-29.3,11.22-14.65,11.22-29.3-11.22-14.65-11.22-29.29,11.22-14.65,11.22-29.3S-47.48,403-47.48,388.32s11.22-14.65,11.22-29.3-11.22-14.65-11.22-29.3,11.22-14.65,11.22-29.3-11.22-14.65-11.22-29.3,11.22-14.65,11.22-29.31-21.27-30.28-7.29-34.66c44.64-14,48.45,11,95.23,11s46.77-11.22,93.54-11.22,46.77,11.22,93.54,11.22,46.78-11.22,93.55-11.22,46.77,11.22,93.54,11.22,46.78-11.22,93.55-11.22,46.77,11.22,93.55,11.22,46.77-11.22,93.54-11.22,46.78,11.22,93.55,11.22,46.78-11.22,93.55-11.22,46.78,11.22,93.55,11.22,50.59-25,95.23-11c14,4.38-7.29,20-7.29,34.66s11.23,14.65,11.23,29.29-11.23,14.65-11.23,29.3,11.23,14.65,11.23,29.3-11.23,14.64-11.23,29.29,11.23,14.65,11.23,29.3-11.23,14.65-11.23,29.3,11.23,14.65,11.23,29.3-11.23,14.65-11.23,29.3,11.23,14.65,11.23,29.3-14.77,16.56-11,30.73C1080.16,554.83,1096.36,565.08,1082.37,569.46Z" style="fill:#002b54"/><path d="M855.39,276.56a112.48,112.48,0,0,1,15,6.56c12.31,6.14,17.54.74,17.54.74s-7.33,2.16-15.62-4.18c-8.47-6.48-19.38-13-35.39-13.24-18.63-.31-20.9,8.09-43.62,17,1.8,5.47,7.57,7.45,12.83,9.07,0,0,12.81,5.45,26.28,1.09,0,0,12.57-11.27,12.37-11.29,0,0,7.43-6.88,10.59-5.75" style="opacity:0.08"/><path d="M736.58,225.31a48.27,48.27,0,0,1,6.49,2.84c5.32,2.65,7.58.32,7.58.32s-3.17.93-6.75-1.81a24.8,24.8,0,0,0-15.3-5.72c-8.05-.14-9,3.49-18.85,7.35.78,2.36,3.27,3.21,5.55,3.91a17.9,17.9,0,0,0,11.36.48s5.43-4.88,5.34-4.88,3.21-3,4.58-2.49" style="opacity:0.1"/><path d="M839.46,226.22a46.76,46.76,0,0,1,6.49,2.83c5.32,2.65,7.58.32,7.58.32s-3.17.93-6.75-1.81a24.82,24.82,0,0,0-15.3-5.72c-8.05-.13-9,3.5-18.85,7.35.78,2.36,3.27,3.22,5.54,3.92a18,18,0,0,0,11.36.47s5.44-4.87,5.35-4.88,3.21-3,4.58-2.48" style="opacity:0.1"/><path d="M783.24,249.86a78.18,78.18,0,0,1,10.54,4.6c8.63,4.31,12.3.52,12.3.52s-5.14,1.51-11-2.94-13.59-9.09-24.83-9.28c-13.07-.22-14.66,5.67-30.6,11.92,1.26,3.84,5.31,5.23,9,6.36,0,0,9,3.83,18.44.77,0,0,8.82-7.91,8.68-7.92s5.21-4.83,7.43-4" style="opacity:0.1"/><path d="M740.13,349.53a79.77,79.77,0,0,1,10.54,4.61c8.63,4.3,12.3.52,12.3.52s-5.14,1.51-11-2.94-13.59-9.09-24.83-9.28c-13.07-.22-14.66,5.67-30.6,11.92,1.26,3.84,5.31,5.23,9,6.36,0,0,9,3.83,18.44.77,0,0,8.82-7.91,8.68-7.92s5.21-4.83,7.43-4" style="opacity:0.05"/><path d="M840,325.42a112,112,0,0,1,15,6.57c12.31,6.13,17.54.74,17.54.74s-7.33,2.15-15.62-4.19c-8.46-6.48-19.37-13-35.39-13.23-18.63-.31-20.9,8.08-43.62,17,1.8,5.47,7.57,7.45,12.83,9.07,0,0,12.81,5.45,26.28,1.1,0,0,12.57-11.28,12.37-11.3,0,0,7.43-6.88,10.6-5.75" style="opacity:0.08"/><path d="M711.24,276.89a47.81,47.81,0,0,1,6.49,2.83c5.32,2.66,7.58.32,7.58.32s-3.17.94-6.75-1.81a24.82,24.82,0,0,0-15.3-5.72c-8-.13-9,3.5-18.85,7.35.77,2.36,3.27,3.22,5.54,3.92a17.87,17.87,0,0,0,11.36.47s5.43-4.87,5.35-4.88,3.21-3,4.58-2.48" style="opacity:0.1"/><path d="M761.53,301.43a78.89,78.89,0,0,1,10.53,4.6c8.64,4.31,12.31.53,12.31.53s-5.14,1.51-11-2.94-13.59-9.1-24.83-9.29c-13.07-.21-14.66,5.68-30.6,11.93,1.26,3.83,5.31,5.22,9,6.36,0,0,9,3.82,18.44.77,0,0,8.82-7.91,8.68-7.93s5.21-4.82,7.43-4" style="opacity:0.08"/><path d="M562.12,288.3a90.73,90.73,0,0,1,12.34,5.39c10.11,5,14.41.61,14.41.61s-6,1.77-12.83-3.44S560.12,280.21,547,280c-15.3-.26-17.17,6.64-35.83,14,1.48,4.49,6.22,6.12,10.54,7.45,0,0,10.52,4.48,21.59.9,0,0,10.32-9.27,10.16-9.28,0,0,6.1-5.65,8.7-4.72" style="opacity:0.08"/><path d="M654.34,352.62a80,80,0,0,1,10.71,4.68c8.78,4.38,12.51.53,12.51.53s-5.23,1.54-11.14-3-13.82-9.25-25.25-9.44c-13.29-.22-14.91,5.77-31.12,12.13,1.29,3.9,5.4,5.31,9.16,6.47,0,0,9.14,3.88,18.74.78,0,0,9-8,8.83-8.06s5.3-4.91,7.56-4.1" style="opacity:0.08"/><path d="M611.15,332.7a48.27,48.27,0,0,1,6.49,2.84c5.32,2.65,7.58.32,7.58.32s-3.16.93-6.75-1.81a24.79,24.79,0,0,0-15.29-5.72c-8.06-.14-9,3.49-18.86,7.34.78,2.37,3.27,3.22,5.55,3.92a17.91,17.91,0,0,0,11.36.48s5.43-4.88,5.34-4.88,3.21-3,4.58-2.49" style="opacity:0.05"/><path d="M487.43,281.93a78.18,78.18,0,0,1,10.54,4.6c8.63,4.31,12.3.52,12.3.52s-5.14,1.51-11-2.94-13.59-9.09-24.83-9.28c-13.07-.22-14.66,5.67-30.6,11.92,1.26,3.84,5.31,5.23,9,6.36,0,0,9,3.83,18.44.77,0,0,8.82-7.91,8.68-7.92s5.21-4.83,7.43-4" style="opacity:0.1"/><path d="M587.74,241.83a111.14,111.14,0,0,1,15,6.56c12.31,6.13,17.54.74,17.54.74s-7.32,2.15-15.61-4.19c-8.47-6.48-19.38-13-35.4-13.23-18.63-.31-20.9,8.09-43.62,17,1.8,5.46,7.57,7.44,12.83,9.06,0,0,12.82,5.45,26.28,1.1,0,0,12.57-11.28,12.37-11.3,0,0,7.43-6.88,10.6-5.74" style="opacity:0.1"/><path d="M623.47,272.71a79.41,79.41,0,0,1,10.71,4.68c8.78,4.38,12.51.53,12.51.53s-5.22,1.54-11.14-3-13.82-9.24-25.25-9.44c-13.29-.22-14.91,5.77-31.12,12.13,1.29,3.9,5.4,5.31,9.16,6.47,0,0,9.14,3.89,18.75.78,0,0,9-8,8.82-8.06s5.3-4.91,7.56-4.1" style="opacity:0.1"/><path d="M652,304.3a48.27,48.27,0,0,1,6.49,2.84c5.32,2.65,7.58.32,7.58.32s-3.16.93-6.75-1.81a24.79,24.79,0,0,0-15.29-5.72c-8.06-.13-9,3.5-18.86,7.35.78,2.36,3.27,3.22,5.55,3.92a17.94,17.94,0,0,0,11.36.47s5.43-4.87,5.34-4.88,3.21-3,4.58-2.49" style="opacity:0.08"/><path d="M371.19,293.87a48.27,48.27,0,0,1,6.49,2.84c5.32,2.65,7.58.32,7.58.32s-3.17.93-6.75-1.81a24.82,24.82,0,0,0-15.3-5.72c-8-.14-9,3.49-18.85,7.35.78,2.36,3.27,3.21,5.55,3.91a17.88,17.88,0,0,0,11.35.48s5.44-4.88,5.35-4.88,3.21-3,4.58-2.49" style="opacity:0.05"/><path d="M538.78,345.29a112,112,0,0,1,15,6.57c12.31,6.13,17.54.74,17.54.74s-7.33,2.15-15.62-4.19c-8.46-6.48-19.37-13-35.39-13.23-18.63-.31-20.9,8.08-43.62,17,1.8,5.47,7.57,7.45,12.83,9.07,0,0,12.81,5.45,26.28,1.1,0,0,12.57-11.28,12.37-11.3,0,0,7.43-6.88,10.6-5.75" style="opacity:0.05"/><path d="M403.06,338.47a79.49,79.49,0,0,1,10.54,4.6c8.63,4.31,12.3.53,12.3.53s-5.14,1.51-11-2.94-13.59-9.1-24.83-9.29c-13.07-.21-14.66,5.68-30.6,11.93,1.26,3.83,5.31,5.22,9,6.36,0,0,9,3.82,18.44.77,0,0,8.82-7.91,8.68-7.93s5.21-4.82,7.43-4" style="opacity:0.08"/><path d="M256.14,274.23a112,112,0,0,1,15,6.57c12.31,6.13,17.54.74,17.54.74s-7.33,2.15-15.62-4.19c-8.46-6.48-19.37-13-35.39-13.23-18.63-.31-20.9,8.08-43.62,17,1.8,5.47,7.57,7.45,12.83,9.07,0,0,12.81,5.45,26.28,1.1,0,0,12.57-11.28,12.37-11.3,0,0,7.43-6.88,10.6-5.75" style="opacity:0.1"/><path d="M476.28,316.82A81.29,81.29,0,0,1,487,321.5c8.78,4.38,12.51.53,12.51.53s-5.22,1.54-11.14-3-13.82-9.25-25.25-9.44c-13.29-.23-14.91,5.76-31.12,12.12,1.29,3.9,5.4,5.31,9.16,6.47,0,0,9.14,3.89,18.74.78,0,0,9-8,8.83-8.06s5.3-4.9,7.56-4.1" style="opacity:0.08"/><path d="M207.6,238.49a79,79,0,0,1,10.53,4.61c8.64,4.3,12.3.52,12.3.52s-5.14,1.51-11-2.94-13.6-9.09-24.83-9.28c-13.07-.22-14.66,5.67-30.6,11.92,1.26,3.84,5.31,5.22,9,6.36,0,0,9,3.83,18.43.77,0,0,8.82-7.91,8.68-7.92s5.21-4.83,7.44-4" style="opacity:0.1"/><path d="M379.05,222.5a79.41,79.41,0,0,1,10.71,4.68c8.78,4.38,12.51.53,12.51.53s-5.22,1.54-11.14-3-13.82-9.24-25.25-9.44c-13.29-.22-14.91,5.77-31.12,12.13,1.29,3.9,5.4,5.31,9.16,6.47,0,0,9.14,3.89,18.75.78,0,0,9-8,8.82-8.06s5.3-4.91,7.56-4.1" style="opacity:0.1"/><path d="M418.5,250.48a49.91,49.91,0,0,1,6.49,2.83c5.32,2.66,7.58.33,7.58.33s-3.17.93-6.75-1.81a24.7,24.7,0,0,0-15.3-5.72c-8-.14-9,3.49-18.85,7.34.78,2.37,3.27,3.22,5.54,3.92a17.91,17.91,0,0,0,11.36.48S414,253,413.92,253s3.21-3,4.58-2.48" style="opacity:0.1"/><path d="M240.27,367.59a111.18,111.18,0,0,1,15,6.56c12.3,6.13,17.53.74,17.53.74s-7.32,2.15-15.61-4.19c-8.47-6.48-19.38-13-35.4-13.23-18.63-.31-20.89,8.09-43.62,17,1.8,5.46,7.57,7.44,12.84,9.06,0,0,12.81,5.45,26.27,1.1,0,0,12.57-11.28,12.37-11.3,0,0,7.43-6.88,10.6-5.74" style="opacity:0.05"/><path d="M177.2,340.88a77.86,77.86,0,0,1,10.53,4.61c8.64,4.3,12.31.52,12.31.52s-5.14,1.51-11-2.94-13.59-9.1-24.83-9.28c-13.07-.22-14.66,5.67-30.6,11.92,1.26,3.83,5.31,5.22,9,6.36,0,0,9,3.82,18.44.77,0,0,8.82-7.91,8.68-7.92s5.21-4.83,7.43-4" style="opacity:0.05"/><path d="M267.12,316.77a113,113,0,0,1,15,6.56c12.31,6.14,17.54.75,17.54.75s-7.33,2.15-15.62-4.19c-8.47-6.48-19.38-13-35.39-13.23-18.63-.32-20.9,8.08-43.62,17,1.8,5.47,7.57,7.45,12.83,9.07,0,0,12.81,5.45,26.28,1.1,0,0,12.57-11.28,12.37-11.3,0,0,7.43-6.88,10.6-5.75" style="opacity:0.08"/><path d="M311.93,347.66a80,80,0,0,1,10.71,4.68c8.78,4.38,12.51.53,12.51.53s-5.23,1.54-11.14-3-13.82-9.25-25.25-9.44c-13.29-.22-14.91,5.77-31.12,12.13,1.29,3.9,5.4,5.31,9.16,6.46,0,0,9.14,3.89,18.74.79,0,0,9-8.05,8.83-8.06s5.3-4.91,7.56-4.1" style="opacity:0.05"/><path d="M185,299.1a80.31,80.31,0,0,1,10.53,4.61c8.63,4.3,12.3.52,12.3.52s-5.14,1.51-10.95-2.94S183.26,292.2,172,292c-13.07-.22-14.66,5.67-30.61,11.92,1.27,3.84,5.31,5.23,9,6.36,0,0,9,3.83,18.43.77,0,0,8.82-7.91,8.68-7.92s5.21-4.83,7.44-4" style="opacity:0.08"/></g><path d="M623.48,261.6a135,135,0,0,0,16.65-1.42c6.87-.87,13.71-1.84,20.48-3.36a53.69,53.69,0,0,0,18.38-7.9c3.36-2.27,5.77-5.47,8.07-8.82,6.56-9.53,6.48-19.56,2.94-30a43.63,43.63,0,0,0-7.51-13.32c-1.82-2.26-3.62-4.78-6.37-6.27a9.49,9.49,0,0,1-3.84-3.55,6.26,6.26,0,0,0-1.86-1.62c-2.12-1.5-4.34-2.88-6.37-4.48a12.17,12.17,0,0,0-8-2.66c-2.75,0-4.8-1-6.71-3.51-2.2-2.85-5.41-5.07-9.64-4.49-3.49.47-4.21,1.87-7.56,3.08-.58.22-3.95-.81-4.61-.9-3.76-.52-5.37,3.52-8.19,5.26-2.39,1.48-4.71,2.38-6.92,4.06a19.39,19.39,0,0,0-5.27,6.44,77.78,77.78,0,0,1-5.15,8.5,7.34,7.34,0,0,0-1.55,4c-.15,5.25-.54,10.55,2.57,15.23a17.8,17.8,0,0,0,5.13,5.7c2.27,1.45,4.47,3,6.68,4.58a15.67,15.67,0,0,0,1.91,1.55c5.58,2.49,13.7,2.8,15.25.93,3.17-3.83-2.07-2.43-7.23-7a14.85,14.85,0,0,1-3.84-5.21c-1.28-2.58-.83-4.93.48-7.39,5.92-11.11,18.68-13.48,27.79-11.23,6.14,1.52,11.64,4.62,15.3,10a16.74,16.74,0,0,1,2.19,15.36c-.53,1.53-.48,3.23-1.53,4.66a20.34,20.34,0,0,1-9,7.2c-6.61,2.57-13.55,3.35-20.61,3.68-3.71.17-7.41.43-11.12.38S616.8,239,613,239c-8.57-.14-16.22-.5-24.71,4.72-2.63,1.61-9,9.45-1.82,12.16s13.67-3.45,15.36,2.72C601.83,258.55,610.49,261.66,623.48,261.6Z" style="fill:#0588cb"/><path d="M601,256.82a36.58,36.58,0,0,1,21.24-6.33c12.52.3,51.34-9.76,45.46-15.48-2-2.93-15.59,3.85-32.18,3.65-3.71,0-7.41.43-11.12.38S616.8,239,613,239c-8.57-.14-16.22-.5-24.71,4.72-2.63,1.61-9,9.45-1.82,12.16C592.82,258.22,598.57,253.74,601,256.82Z" style="fill:#2391cb"/><path d="M676.12,190.46a9.49,9.49,0,0,1-3.84-3.55,6.26,6.26,0,0,0-1.86-1.62c-2.12-1.5-4.34-2.88-6.37-4.48a12.17,12.17,0,0,0-8-2.66c-2.75,0-4.8-1-6.71-3.51-2.2-2.85-5.41-5.07-9.64-4.49-3.49.47-4.21,1.87-7.56,3.08-.58.22-3.95-.81-4.61-.9-3.76-.52-5.37,3.52-8.19,5.26-2.39,1.48-4.71,2.38-6.92,4.06a19.39,19.39,0,0,0-5.27,6.44,77.78,77.78,0,0,1-5.15,8.5,7.34,7.34,0,0,0-1.55,4c-.15,5.25-1.74,13,7.7,20.93,0-1.22-10-18.49,4.21-28.79,9.05-6.54,24.34-13.28,43.4-6.11,17.31,6.51,20.37,17.57,20.37,25.9,0,5.5,3,16.28,5.09.22S676.12,190.46,676.12,190.46Z" style="fill:#2391cb"/><path d="M608.18,221.51c2.27,1.45,4.47,3,6.68,4.58a15.67,15.67,0,0,0,1.91,1.55c5.58,2.49,13.7,2.8,15.25.93,3.17-3.83-2.45-2.31-7.23-7a17.06,17.06,0,0,1-3.84-5.21c-1.28-2.58-.83-4.93.48-7.39,5.92-11.11,18.68-13.48,27.79-11.23,4.49,1.11-16.31-5.29-30,.19C600.38,205.47,608.18,221.51,608.18,221.51Z" style="opacity:0.1"/><path d="M698.6,256.57c-3.43,6.47-10.22,12.35-27.42,14.11-26.5,2.71-62.95-6-72-9.08s1.82-4.78,1.82-4.78,8.72-.3,21.24,0,32.07-3,49.54-10.54,16.56-27.41,16.56-31.93,1.65-4.3,1.65-4.3c3.54,10.49,3.62,20.52-2.94,30C687.06,240.1,706.88,240.91,698.6,256.57Z" style="opacity:0.1"/><path d="M231.67,247.31c-5.65.58-1.88,3.74,13.56,8.78,19.68,6.43,44.52,5.2,54.46,7.37,5.8,1.26-14.89-11.89-19-13.79C272.12,245.76,250,245.42,231.67,247.31Z" style="opacity:0.1"/><path d="M348,235.94c-13.33-6.45-26.45-1.67-34.31-1.23s-15.4-3.72-20-9.65c-1.21-1.56-2.61-3.25-3-5.21-3.49-9.88-1.59-18.46-4.56-27.47-9.38-28.44-42.14-33.07-58-13.58-6.66,8.19-9.7,20-9.67,25.23.11,15.62,8.48,12.79,7.65,10.74-1.63-4-2.34-6.69-1.16-9.28.11-.24,1.34-2.49,1.48-2.71s.8-2.08.93-2.3c1.81-3,1.69-1,5-3,.22-.13,1.58-2.26,1.81-2.38,1.11-1.31,3.17-1.15,4-1.77,2.28-1.73.38-1.67,2.71-3,3-1.66,4.79-.35,7,.23a3.16,3.16,0,0,1,.66.21c2.75,1.38,5.47,3.83,9.77,4.35a3,3,0,0,1,.76.34,5.76,5.76,0,0,1,1.47.9,3.36,3.36,0,0,1,.45.6,7.75,7.75,0,0,1,1,2c.07.23.13.45.18.68.79,2.76-.47,6.81,1.93,10,.06.26.11.51.16.76.3,1.52.61,3,.9,4.14.05.23.09.47.14.71.26,1.42.53,2.87.84,4.33.9,3.91,1.89,7.78,3.07,11.59a88.74,88.74,0,0,0,4.25,11.17,39.82,39.82,0,0,0,21.14,20.17,24.13,24.13,0,0,0,8.64,1.76c4.84.15,6.81,0,11.53-1.51,5.06-1.64,12.55,1.77,16.83-1.43,10.87-8.84,42.72-10.22,42.72-10.22A193.11,193.11,0,0,0,348,235.94Z" style="fill:#0588cb"/><path d="M299.81,256.54c-16.16-.91-20.33-18.59-32.17-30.55,0,0,5.77,29,26.87,36.51,13.47,4.8,66.1,2.43,75.68-6.83,0,0-12.86-8.31-28.4-7.9C328.37,248.13,313.19,257.3,299.81,256.54Z" style="opacity:0.1"/><path d="M283.22,185.65l0-.09c-1.05-2.69-2.19-4.35-3.39-5.21-13.34-17.26-38.42-17.85-51.69-1.55-6.66,8.19-9.7,20-9.67,25.23.11,15.62,8.48,12.79,7.65,10.74-1.63-4-2.34-6.69-1.16-9.28.11-.24,1.34-2.49,1.48-2.71s.8-2.08.93-2.3c1.81-3,1.69-1,5-3,.22-.13,1.58-2.26,1.81-2.38,1.11-1.31,3.17-1.15,4-1.77,2.28-1.73.38-1.67,2.71-3,3-1.66,4.79-.35,7,.23a3.16,3.16,0,0,1,.66.21c2.75,1.38,5.47,3.83,9.77,4.35a3,3,0,0,1,.76.34,5.76,5.76,0,0,1,1.47.9,3.36,3.36,0,0,1,.45.6,7.75,7.75,0,0,1,1,2c.07.23.13.45.18.68s16,24.5,21.72,19.82C293.26,211.75,284.34,187.72,283.22,185.65Z" style="fill:#2391cb"/><path d="M261.9,199a7.75,7.75,0,0,0-1-2,3.36,3.36,0,0,0-.45-.6,5.76,5.76,0,0,0-1.47-.9,3,3,0,0,0-.76-.34c-4.3-.52-7-3-9.77-4.35a3.16,3.16,0,0,0-.66-.21c-2.19-.58-4-1.89-7-.23-2.33,1.29-.43,1.23-2.71,3-.83.62-2.89.46-4,1.77-.23.12-1.59,2.25-1.81,2.38-3.3,2.07-3.18,0-5,3-.13.22-.79,2.08-.93,2.3s-1.37,2.47-1.48,2.71c-1.18,2.59-.47,5.29,1.16,9.28.83,2-7.54,4.88-7.65-10.74,0,0,6-25,26.17-22.09S261.9,199,261.9,199Z" style="opacity:0.1"/><path d="M546.59,318.33c12.84,11,27.62,14.23,45.59,8.74s12-10.51,12-10.51Z" style="opacity:0.1"/><path d="M544.66,316.56c1.38-9,15-20.63,28.16-20.63s31.36,17,31.36,20.63C604.18,316.56,557,330.59,544.66,316.56Z" style="fill:#0588cb"/><path d="M547.8,309.56c5-7.06,15.17-13.63,25-13.63,4.68,0,10,2.15,14.91,5.09C596.62,306.33,546.12,311.91,547.8,309.56Z" style="fill:#2391cb"/><path d="M604.18,316.56s-47.14,14-59.52,0c0,0-.07-2.49,7.84-3.24,4.5-.42,13.17,1.25,21.92.44,10-.93,21.32-3.28,26.28-2.41C604.18,312,604.18,316.56,604.18,316.56Z" style="opacity:0.1"/><path d="M683.57,323.33c9.44.73,31,9.9,14.25,11.08-11.37.8-14.07-.46-17.46-3.19C672.52,324.93,680.51,323.09,683.57,323.33Z" style="opacity:0.1"/><path d="M658.23,330.63c20.48-11.15,17.42-25.07,12.09-30.39s8.93-6.66,14.78,0,8.38,17.65,5.12,23.46c0,0-4.32,10.28-8.05,9.25C682.17,333,673,324.3,658.23,330.63Z" style="fill:#0588cb"/><path d="M658.23,330.63c20.48-11.15,17.42-25.07,12.09-30.39-1.8-1.81-1.49-3.57.25-3.88C680.82,294.48,689,320.23,658.23,330.63Z" style="fill:#2391cb"/><path d="M685,306.9c-2.57-6.22-8.4-10.19-6.38-10.52,1.43-.22,4,1.1,6.45,3.86,5.85,6.65,8.38,17.65,5.12,23.46,0,0-4.32,10.28-8.05,9.25,0,0-1.1-1.53-6.32-3.21C683.51,326.45,689.75,318.27,685,306.9Z" style="opacity:0.1"/><path d="M719.35,155.72c4.18-3.63,14.66-6.34,14.66-6.34,1-6.15-16.38-6.17-16.38-6.17a31.88,31.88,0,0,0,6.61-24.41,5.93,5.93,0,0,1,6-3.74c7.4.09-15.54-14.84-15.54-14.84l0,0c-.47-.45-1-.89-1.46-1.32a32,32,0,0,0-49.37,10.46h0s-.32-4-2.09.16c-1.53,3.54-4.78,11.53.87,24.77a31.76,31.76,0,0,0,3.45,6.8l0,0,.1.14c.18.27.37.53.56.79.06.08.12.18.19.26s.28.39.43.58l-.15-.07s-3.33,6-1.92,7.62c1,1.15,3.39-2.54,4.62-4.66.65.65,1.33,1.29,2,1.9l.19.14c-1.09,1.91-3.09,5.81-2,7,1.18,1.34,3.91-3.45,4.74-5a32,32,0,0,0,33.3,1.35s-2.36,20.43,4.18,20.5C712.39,171.72,715.08,159.42,719.35,155.72Z" style="fill:#f7931e"/><path d="M719.35,155.72c4.18-3.63,14.66-6.34,14.66-6.34,1-6.15-16.38-6.17-16.38-6.17a31.88,31.88,0,0,0,6.61-24.41,5.93,5.93,0,0,1,6-3.74c7.4.09-11.8-11.11-11.8-11.11l-3.72-3.69c12.49,13.77-2.19,69.79-52.05,34.07a31.76,31.76,0,0,0,3.45,6.8l0,0,.1.14c.18.27.37.53.56.79.06.08.12.18.19.26s.28.39.43.58l-.15-.07s-3.33,6-1.92,7.62c1,1.15,3.39-2.54,4.62-4.66.65.65,1.33,1.29,2,1.9l.19.14c-1.09,1.91-3.09,5.81-2,7,1.18,1.34,3.91-3.45,4.74-5a32,32,0,0,0,33.3,1.35s-2.36,20.43,4.18,20.5C712.39,171.72,715.08,159.42,719.35,155.72Z" style="fill:#f78500"/><path d="M696.59,104.34a15.72,15.72,0,1,0,1.86,22.15A15.74,15.74,0,0,0,696.59,104.34Z" style="fill:#f5f5f5"/><path d="M694.41,104.52a14.17,14.17,0,1,0,1.67,20A14.19,14.19,0,0,0,694.41,104.52Z" style="fill:#fff"/><circle cx="679.7" cy="116.25" r="5.69"/><path d="M748.51,131.89a2.67,2.67,0,0,1-.77,3.88h0c-.94.48-2.76-.25-3.3-2.3a21.15,21.15,0,0,1-.37-4.95h0C745,128,747.88,130.9,748.51,131.89Z" style="fill:#002b54"/><path d="M741.59,126.16a1.17,1.17,0,0,1-.68,1.61h0c-.45.13-1.18-.35-1.23-1.29a9.61,9.61,0,0,1,.29-2.19h0C740.42,124.17,741.41,125.67,741.59,126.16Z" style="fill:#002b54"/><path d="M719.53,239.13c.29,1.82-.61,2.89-1.26,3h0c-.65.12-1.56-1-1.45-2.89a25.27,25.27,0,0,1,.82-4.23h0C718.29,234.89,719.37,238.12,719.53,239.13Z" style="fill:#002b54"/><path d="M746.42,242.65a2.91,2.91,0,0,1-.93,3.79h0c-.83.39-2.28-.5-2.58-2.58a25.66,25.66,0,0,1,.06-5h0C743.79,238.5,746,241.6,746.42,242.65Z" style="fill:#002b54"/><path d="M715.41,231.4c0,.77-.47,1.1-.77,1.07h0c-.3,0-.64-.61-.47-1.35a9.21,9.21,0,0,1,.65-1.63h0C715.12,229.52,715.4,231,715.41,231.4Z" style="fill:#002b54"/><path d="M406.63,307.34c7.23-3.61,9.62-8.87,9.62-8.87a61.79,61.79,0,0,0-1.76-11.28c-.69-2.8-1.55-5.28-3.62-7.35A16.89,16.89,0,0,1,408,275.9a77.22,77.22,0,0,0-5.83-9.31,57.71,57.71,0,0,0-8.28-9.5,61.42,61.42,0,0,0-12.42-8.54,44.16,44.16,0,0,0-11.65-4,41.51,41.51,0,0,0-11-.77,53.64,53.64,0,0,0-10.64,1.4c-5.77,1.44-10.93,4.4-15.72,7.85a48.51,48.51,0,0,0-10,9.45c-3.11,4-6.35,7.85-9.54,11.77Q311,276.68,309,279c-3.66,4.4-6.93,9.08-11.4,12.8a50.8,50.8,0,0,1-15.58,8.78c-2.1.75-4.35.44-6.45.95a33.24,33.24,0,0,1-11.42.3c-8-.82-15.07-4.08-21.48-8.85a12.68,12.68,0,0,0-1.56-1c-2.89-1.54-5.23-.53-6.25,2.59-1.62,4.9,0,9.34,1.85,13.76a1.77,1.77,0,0,0,.58.72,13.18,13.18,0,0,1,4.93,8.31,7.33,7.33,0,0,0,7.55,6,6.91,6.91,0,0,1,4.16,1c2.14,1.59,4.71,2.09,7,3.27a10.59,10.59,0,0,0,9,.65,7.1,7.1,0,0,1,8,1.62c2.51,2.52,4.53,2.6,7.84.72,3.67-2.09,13.12-1.58,22.85-11.91,3.05-3.24,4.48-5.89,8-8.76a42.61,42.61,0,0,0,7.57-8.43c2.34-3.31,13.58-18.33,14.95-20.3a39.67,39.67,0,0,1,4.67-5,13.73,13.73,0,0,1,8.29-3.91,35.59,35.59,0,0,1,8.94-.19c11,1.49,18.4,7.58,22.55,17.67a36,36,0,0,1,2.85,16.28S399.4,311,406.63,307.34Z" style="fill:#0588cb"/><path d="M388.73,253a72.11,72.11,0,0,0-7.26-4.43,44.16,44.16,0,0,0-11.65-4,41.51,41.51,0,0,0-11-.77,53.64,53.64,0,0,0-10.64,1.4c-5.77,1.44-10.93,4.4-15.72,7.85a48.51,48.51,0,0,0-10,9.45c-3.11,4-6.35,7.85-9.54,11.77Q311,276.68,309,279c-3.66,4.4-6.93,9.08-11.4,12.8a50.8,50.8,0,0,1-15.58,8.78c-2.1.75-4.35.44-6.45.95a33.24,33.24,0,0,1-11.42.3c-8-.82-15.07-4.08-21.48-8.85a12.68,12.68,0,0,0-1.56-1c-2.89-1.54-5.23-.53-6.25,2.59,0,0,10.05,19,37.77,14.35S307.77,292.44,323,274s29.53-9.13,40.37-8.77C383.93,265.92,390.53,254.24,388.73,253Z" style="fill:#2391cb"/><path d="M234.47,296.2c19.16,23.51,42.74,36.46,79.91,16.05A94.23,94.23,0,0,1,304,322.85c32.06-1.39,77.67-19.06,82.31-21.65-3.51-26.48-20.67-28.15-27.18-29.2,3.37-1.68,6.46-1.65,12.51-1,16.88,1.81,14.24,31.35,27.43,28.18s15.91-6.37,14-16.11a45,45,0,0,1,3.72,15.39c.21,6.33,1.68,12-10.58,18.35-16.6,8.55-32.41,15-65.37,20.44a194,194,0,0,1-67-.59c-11.34-2.19-8.1-7.53-10.75-8.3-8.79-2.55-7.49-3.78-10.18-4.34-3.14-.66-9-.84-8.43-2.14-3.52-4.9-1.68-5.6-4-9.16a13.89,13.89,0,0,0-3.45-3.85A19,19,0,0,1,234.47,296.2Z" style="opacity:0.1"/><path d="M1.2,97.31v29.9s-.51-.39,71-10,66.24,16.09,109.48,4.45c41.05-11,96.23-12.56,115.05-13.07,0,0-30.92-5.57-85.15-1.52s-62.59-1-109.28-7.6C24.75,88.51,1.2,97.31,1.2,97.31Z" style="fill:#fff"/><path d="M.46,77.76v17s-.29-.23,40.36-5.7,37.68,9.15,62.27,2.53c23.35-6.28,54.74-7.15,65.44-7.44,0,0-17.58-3.17-48.43-.86S84.5,82.72,57.94,79C13.86,72.75.46,77.76.46,77.76Z" style="fill:#fff"/><path d="M1021.38,37.7V7.79s.51.4-71,10S884.19,1.73,841,13.36c-41.05,11.05-96.23,12.57-115,13.08,0,0,30.91,5.57,85.14,1.52s62.59,1,109.28,7.6C997.83,46.49,1021.38,37.7,1021.38,37.7Z" style="fill:#fff"/><path d="M500.77,67.11c-9.41.32-34.23,4.45-80.9-2.14-37.38-5.27-44.07-9.33-87.49-6.08s-68.17-1.22-68.17-1.22c15.06-.41,59.24-1.62,92.11-10.47,34.62-9.31,30.43,11.28,87.64,3.57,30.39-4.09,46.16-7.31,58.32-7.31s55.3,7.74,55.3,7.74c57.21,7.71,53-12.89,87.64-3.57,32.87,8.84,77,10.06,92.11,10.46,0,0-24.75,4.47-68.17,1.22S592,63.87,581.67,65.4,510.18,66.79,500.77,67.11Z" style="fill:#fff"/><path d="M543.43,189.86c0-2.57-.14-5.13,0-7.7a28.32,28.32,0,0,0-.48-7.63c-.23-1.26-.49-2.51-.75-3.77s-.46-2.51-.81-3.74a66.27,66.27,0,0,0-10.13-20.49,62.23,62.23,0,0,0-10.5-11.07A73.27,73.27,0,0,0,508,127.12a63.73,63.73,0,0,0-14.25-5.39,41.15,41.15,0,0,0-7.42-1.64,14.43,14.43,0,0,0-1.86,0,9.52,9.52,0,0,1-2-.06,18,18,0,0,0-3.76-.34c-5.14.24-10.29-.19-15.3,1l0-.1a37.69,37.69,0,0,1,7.61-1.19c2.57-.16,5.14-.19,7.68-.39a17.17,17.17,0,0,1,3.89.25,8.73,8.73,0,0,0,1.84,0,14.55,14.55,0,0,1,2,0,41.21,41.21,0,0,1,7.61,1.53,65,65,0,0,1,14.46,5.48,76,76,0,0,1,12.85,8.6,63.25,63.25,0,0,1,10.5,11.31,60.05,60.05,0,0,1,7.5,13.47,61.56,61.56,0,0,1,2.5,7.3c.33,1.24.54,2.52.77,3.78s.48,2.52.69,3.78a28.34,28.34,0,0,1,.39,7.69c-.18,2.55-.09,5.12-.11,7.69Z" style="fill:#0588cb"/><path d="M447.37,271.44c8.13,1.8,11-3.67,18.93-5.21,18.72-3.66,21.69,6.32,31.63,6.32s17.16-3.82,21.55-6c0,0-.52-4.74,3.11-17.51,1.83-6.41,7-14.21,11.49-19.11a67.54,67.54,0,0,0,12.77-20.48A73.74,73.74,0,0,0,550.1,199a40.34,40.34,0,0,0,1.59-9.11c0-3-.14-6.05.11-9.05.38-4.64-.8-9.1-1.6-13.54A56.73,56.73,0,0,0,546.54,156a68.7,68.7,0,0,0-12.32-19.38A72.78,72.78,0,0,0,516,122a71.44,71.44,0,0,0-18.88-7.72c-3.42-.84-6.9-2.1-10.62-1.73-1.94.18-4-.54-5.85-.41-5.75.38-11.55,0-17.26,1.44-3.49.9-7,1.82-10.42,2.87a16.54,16.54,0,0,0-2,.76c-4.87,2.2-9.78,4.47-14.05,7.64-5.78,4.27-11.33,8.88-15.65,14.84a82.88,82.88,0,0,0-7.67,11.93,76.17,76.17,0,0,0-4.9,12.25c-.72,2.46-.68,5.1-1.89,7.45a6.52,6.52,0,0,0-.35,2.75,166.62,166.62,0,0,0,.08,18.7,49.91,49.91,0,0,0,2.93,12.54,65,65,0,0,0,6.26,13.35,74.59,74.59,0,0,0,7.62,10.5c3.79,4.14,9.52,14.29,10.59,19.86,2.12,11.11.29,14.33.29,14.33A22.94,22.94,0,0,0,447.37,271.44Z" style="fill:#0588cb"/><path d="M546.54,156a68.7,68.7,0,0,0-12.32-19.38A72.78,72.78,0,0,0,516,122a71.44,71.44,0,0,0-18.88-7.72,70.17,70.17,0,0,0-16.47-2.14c-5.76,0-11.55,0-17.26,1.44-3.49.9-11.79,3.33-12.45,3.63-4.87,2.2-9.78,4.47-14.05,7.64-5.78,4.27-11.33,8.88-15.65,14.84a82.88,82.88,0,0,0-7.67,11.93,76.17,76.17,0,0,0-4.9,12.25,100.89,100.89,0,0,0-2.24,10.2,166.62,166.62,0,0,0,.08,18.7,49.91,49.91,0,0,0,2.93,12.54s31.41,14.86,83.49-5.54C552.82,176.27,546.54,156,546.54,156Z" style="fill:#2391cb"/><path d="M490.17,224.28c-24.57,0-38.34-18-38.6-39-.25-20.68,17.79-38.94,38.37-38.31,21.9-.81,39,18.48,38.91,37.94C528.76,205.72,515.07,224.28,490.17,224.28Z" style="opacity:0.1"/><path d="M490.17,220.64a35.81,35.81,0,0,1-35.83-35.34c-.23-19.19,16.52-36.15,35.62-35.56,20.33-.76,36.21,17.15,36.12,35.22A35.83,35.83,0,0,1,490.17,220.64Z" style="fill:#f5f5f5"/><path d="M492.89,206.34a27.12,27.12,0,0,1-27.14-26.78c-.18-14.54,12.51-27.38,27-26.94,15.4-.57,27.43,13,27.37,26.69A27.15,27.15,0,0,1,492.89,206.34Z" style="fill:#fff"/><path d="M491.58,190.57A10.43,10.43,0,1,0,502,201,10.43,10.43,0,0,0,491.58,190.57Z"/><path d="M511,237.52c36.24-19.6,40.76-56.71,37.55-76.23,0,0,7.45,14.58-.17,43.75-7.74,29.64-25.9,20.12-28.94,61.49,0,0-10.79,7.4-23.36,6-10.59-1.16-12.23-6.47-19.66-7C479,248.86,498,244.58,511,237.52Z" style="opacity:0.1"/><path d="M479.66,115.79c-.22-1.37-18.47.71-25.15,3.42a77.31,77.31,0,0,0-27.3,19.11c-7.63,8.06-16.17,22.56-12.63,23,6.44.85,9.52-13.09,18.75-22.73C458.27,112.57,480,118,479.66,115.79Z" style="fill:#cfefff;opacity:0.6000000000000001"/></svg>