<?xml version="1.0" encoding="UTF-8"?>
<svg width="242px" height="242px" viewBox="0 0 242 242" version="1.1" xmlns="http://www.w3.org/2000/svg" xmlns:xlink="http://www.w3.org/1999/xlink">
    <title>Group 3</title>
    <defs>
        <path d="M102.868494,1.36034263 L104.571918,12.5726905 C115.461253,10.9341826 126.539223,10.9341826 137.430464,12.5726905 L137.430464,12.5726905 L139.130077,1.36034263 C133.122365,0.453447543 127.061301,0 121.000238,0 L121.000238,0 C114.939175,0 108.878112,0.453447543 102.868494,1.36034263 L102.868494,1.36034263 Z M147.319467,14.5389 C158.025884,17.1719441 168.276912,21.4111071 177.718147,27.1115905 L177.718147,27.1115905 L183.579144,17.3929522 C173.164252,11.1094648 161.853824,6.43590672 150.040372,3.53612874 L150.040372,3.53612874 L147.319467,14.5389 Z M58.4575351,17.3929522 L64.2804238,27.1115905 C73.7235641,21.4111071 83.9726867,17.1719441 94.682915,14.5389 L94.682915,14.5389 L91.9601048,3.53612874 C80.1580848,6.43971721 68.8629001,11.1132753 58.4575351,17.3929522 L58.4575351,17.3929522 Z M120.998333,22.6876191 C85.226437,22.7047663 52.2859589,42.1515691 34.9906836,73.4661229 L34.9906836,73.4661229 C17.6973137,104.778772 18.777673,143.015069 37.810669,173.298887 L37.810669,173.298887 L28.3599072,213.623329 L68.6856983,204.17333 C104.057461,226.447511 149.649765,223.923066 182.344447,197.876506 L182.344447,197.876506 C215.03913,171.82804 227.683334,127.956038 213.869217,88.5041963 L213.869217,88.5041963 C200.066531,49.0828387 162.852251,22.6876191 121.084076,22.6876191 L121.084076,22.6876191 C121.053589,22.6876191 121.030725,22.6876191 120.998333,22.6876191 L120.998333,22.6876191 Z M186.037104,32.7244328 C194.901004,39.2632225 202.734085,47.0937662 209.273403,55.9588562 L209.273403,55.9588562 L218.404058,49.1533326 C211.21119,39.4042104 202.593086,30.7868019 192.843177,23.5945142 L192.843177,23.5945142 L186.037104,32.7244328 Z M23.5945129,49.1533326 L32.7270737,55.9588562 C39.2663912,47.0937662 47.0975669,39.2632225 55.9633723,32.7244328 L55.9633723,32.7244328 L49.1553941,23.5945142 C39.4073905,30.7868019 30.7892865,39.4042104 23.5945129,49.1533326 L23.5945129,49.1533326 Z M214.888603,64.2771418 C220.583831,73.7061834 224.823336,83.9411422 227.460403,94.6371695 L227.460403,94.6371695 L238.465968,91.914579 C235.556429,80.1287534 230.884399,68.8459116 224.60612,58.454723 L224.60612,58.454723 L214.888603,64.2771418 Z M3.53450872,91.9526839 L14.5400733,94.6752744 C17.17333,83.9659103 21.4109296,73.7176148 27.1118731,64.2771418 L27.1118731,64.2771418 L17.3943559,58.454723 C11.1103614,68.8592483 6.44023691,80.1516163 3.53450872,91.9526839 L3.53450872,91.9526839 Z M229.426771,104.563479 C230.249902,110.001039 230.661468,115.491946 230.657657,120.992379 L230.657657,120.992379 C230.661468,126.490907 230.249902,131.981814 229.426771,137.419374 L229.426771,137.419374 L240.638119,139.120755 C242.45396,127.102489 242.45396,114.880363 240.638119,102.862098 L240.638119,102.862098 L229.426771,104.563479 Z M1.36045241,139.120755 L12.5717998,137.419374 C11.7505743,131.981814 11.3390088,126.490907 11.344725,120.992379 L11.344725,120.992379 C11.3390088,115.491946 11.7505743,110.001039 12.5717998,104.563479 L12.5717998,104.563479 L1.36045241,102.862098 C-0.453484138,114.880363 -0.453484138,127.102489 1.36045241,139.120755 L1.36045241,139.120755 Z M214.888603,177.705711 L224.60612,183.566235 C230.890115,173.150278 235.56405,161.840763 238.465968,150.028264 L238.465968,150.028264 L227.460403,147.307578 C224.827146,158.015037 220.587641,168.265238 214.888603,177.705711 L214.888603,177.705711 Z M3.53450872,150.028264 C6.00199594,160.053646 9.75181436,169.718937 14.6905996,178.782173 L14.6905996,178.782173 L11.9106275,190.729944 L22.9523946,193.30202 L26.7346048,177.061739 C21.2222955,167.800359 17.1123573,157.773072 14.5400733,147.307578 L14.5400733,147.307578 L3.53450872,150.028264 Z M186.037104,209.256515 L192.768866,218.388339 C202.543546,211.199861 211.188325,202.582453 218.404058,192.827615 L218.404058,192.827615 L209.273403,186.043049 C202.73218,194.898613 194.901004,202.725346 186.037104,209.256515 L186.037104,209.256515 Z M4.08326264,224.267915 C3.18963213,228.087925 4.33286945,232.100364 7.10712535,234.874396 L7.10712535,234.874396 C9.88138125,237.648428 13.8941443,238.793478 17.7144623,237.898014 L17.7144623,237.898014 L41.1203411,232.529043 L38.5499625,221.392905 L15.1250298,226.857138 L20.5897042,203.434096 L9.54793704,200.844872 L4.08326264,224.267915 Z M147.355669,227.442048 L150.078479,238.446724 C161.867162,235.53742 173.149009,230.865767 183.541036,224.587995 L183.541036,224.587995 L177.718147,214.873168 C168.288345,220.567935 158.050654,224.805193 147.355669,227.442048 L147.355669,227.442048 Z M64.8482317,215.305657 L48.6085455,219.087562 L51.1789241,230.128438 L63.1276595,227.350596 C72.1935315,232.287077 81.8596031,236.036593 91.883889,238.501976 L91.883889,238.501976 L94.6066992,227.499205 C84.1632263,224.894739 74.1598997,220.760365 64.9244475,215.231353 L64.9244475,215.231353 L64.8482317,215.305657 Z M104.571918,229.429215 L102.868494,240.639657 C114.887729,242.453448 127.112747,242.453448 139.130077,240.639657 L139.130077,240.639657 L137.430464,229.429215 C126.539223,231.067723 115.461253,231.067723 104.571918,229.429215 L104.571918,229.429215 Z" id="path-1"/>
    </defs>
    <g id="Page-1" stroke="none" stroke-width="1" fill="none" fill-rule="evenodd">
        <g id="Artboard" transform="translate(-47.000000, -98.000000)">
            <g id="Group-3" transform="translate(47.000000, 98.000000)">
                <mask id="mask-2" fill="white">
                    <use xlink:href="#path-1"/>
                </mask>
                <use id="Clip-2" fill="#495057" xlink:href="#path-1"/>
            </g>
        </g>
    </g>
</svg>