<?xml version="1.0" encoding="utf-8"?>
<!-- Generator: Adobe Illustrator 25.0.0, SVG Export Plug-In . SVG Version: 6.00 Build 0)  -->
<svg version="1.1" id="Layer_1" xmlns="http://www.w3.org/2000/svg" xmlns:xlink="http://www.w3.org/1999/xlink" x="0px" y="0px"
	 viewBox="0 0 30 30" style="enable-background:new 0 0 30 30;" xml:space="preserve">
<path id="path-1_1_" style="fill-rule:evenodd;clip-rule:evenodd;" d="M13.3,3.6l0.2,1.1c1-0.2,2.1-0.2,3.1,0l0,0l0.2-1.1
	c-0.6-0.1-1.1-0.1-1.7-0.1l0,0C14.4,3.5,13.8,3.5,13.3,3.6L13.3,3.6z M17.5,4.9c1,0.3,2,0.7,2.9,1.2l0,0l0.6-0.9
	c-1-0.6-2.1-1-3.2-1.3l0,0L17.5,4.9z M9.1,5.2l0.6,0.9c0.9-0.5,1.9-0.9,2.9-1.2l0,0l-0.3-1C11.1,4.1,10,4.6,9.1,5.2L9.1,5.2z
	 M15,5.7c-3.4,0-6.5,1.8-8.2,4.8l0,0c-1.6,3-1.5,6.6,0.3,9.5l0,0l-0.9,3.8l3.8-0.9c3.4,2.1,7.7,1.9,10.8-0.6l0,0
	c3.1-2.5,4.3-6.6,3-10.4l0,0C22.5,8.2,19,5.7,15,5.7L15,5.7C15,5.7,15,5.7,15,5.7L15,5.7z M21.2,6.6C22,7.2,22.8,8,23.4,8.8l0,0
	l0.9-0.6c-0.7-0.9-1.5-1.7-2.4-2.4l0,0L21.2,6.6z M5.7,8.2l0.9,0.6C7.2,8,8,7.2,8.8,6.6l0,0L8.2,5.7C7.2,6.4,6.4,7.2,5.7,8.2
	L5.7,8.2z M23.9,9.6c0.5,0.9,0.9,1.9,1.2,2.9l0,0l1-0.3c-0.3-1.1-0.7-2.2-1.3-3.2l0,0L23.9,9.6z M3.8,12.2l1,0.3
	c0.3-1,0.7-2,1.2-2.9l0,0L5.2,9.1C4.6,10,4.1,11.1,3.8,12.2L3.8,12.2z M25.3,13.4c0.1,0.5,0.1,1,0.1,1.6l0,0c0,0.5,0,1-0.1,1.6l0,0
	l1.1,0.2c0.2-1.1,0.2-2.3,0-3.4l0,0L25.3,13.4z M3.6,16.7l1.1-0.2c-0.1-0.5-0.1-1-0.1-1.6l0,0c0-0.5,0-1,0.1-1.6l0,0l-1.1-0.2
	C3.5,14.4,3.5,15.6,3.6,16.7L3.6,16.7z M23.9,20.4l0.9,0.6c0.6-1,1-2.1,1.3-3.2l0,0l-1-0.3C24.9,18.5,24.5,19.5,23.9,20.4L23.9,20.4
	z M3.8,17.8c0.2,1,0.6,1.9,1.1,2.7l0,0l-0.3,1.1l1,0.2L6,20.3c-0.5-0.9-0.9-1.8-1.2-2.8l0,0L3.8,17.8z M21.2,23.4l0.6,0.9
	c0.9-0.7,1.8-1.5,2.4-2.4l0,0l-0.9-0.6C22.8,22,22,22.8,21.2,23.4L21.2,23.4z M3.9,24.8c-0.1,0.4,0,0.7,0.3,1l0,0
	c0.3,0.3,0.6,0.4,1,0.3l0,0l2.2-0.5l-0.2-1.1l-2.2,0.5l0.5-2.2l-1-0.2L3.9,24.8z M17.5,25.1l0.3,1c1.1-0.3,2.2-0.7,3.2-1.3l0,0
	l-0.6-0.9C19.5,24.5,18.5,24.9,17.5,25.1L17.5,25.1z M9.7,24l-1.5,0.4l0.2,1l1.1-0.3c0.9,0.5,1.8,0.8,2.7,1.1l0,0l0.3-1
	C11.5,24.9,10.5,24.5,9.7,24L9.7,24L9.7,24z M13.4,25.3l-0.2,1.1c1.1,0.2,2.3,0.2,3.4,0l0,0l-0.2-1.1C15.5,25.5,14.5,25.5,13.4,25.3
	L13.4,25.3z"/>
</svg>
