<?xml version="1.0" encoding="utf-8"?>
<!-- Generator: Adobe Illustrator 17.1.0, SVG Export Plug-In . SVG Version: 6.00 Build 0)  -->
<!DOCTYPE svg PUBLIC "-//W3C//DTD SVG 1.1//EN" "http://www.w3.org/Graphics/SVG/1.1/DTD/svg11.dtd">
<svg version="1.1" xmlns="http://www.w3.org/2000/svg" xmlns:xlink="http://www.w3.org/1999/xlink" x="0px" y="0px"
	 viewBox="0 0 363.349 363.349" enable-background="new 0 0 363.349 363.349" xml:space="preserve">
<g id="Layer_1">
</g>
<g id="Logo">
	<g>
		<g>
			<g>
				<g>
					<path fill="#8DD5F6" d="M181.675,0C282.01,0,363.349,81.339,363.349,181.675S282.01,363.349,181.675,363.349
						S0,282.01,0,181.675S81.339,0,181.675,0"/>
				</g>
			</g>
			<g>
				<g>
					<path fill="#1386C8" d="M132.242,140.329c12.764,12.461,15.648,24.041,10.415,34.482c-5.663,11.297-18.716,17.403-40.17,17.582
						c-18.491,0.156-23.492-9.027-27.242-14.305c-7.193-10.119-3.468-22.395,3.277-30.278c8.194-9.576,14.243-10.403,20.896-6.82
						c3.57,1.922,8.846,6.402,8.966,14.568c0.071,4.863-3.219,12.397-3.219,13.351c0,0.954,0.776,1.55,1.61,1.192
						c0.836-0.358,7.534-3.902,11.326-8.762c3.392-4.347,7.033-20.146,6.319-22.173c-0.716-2.026-5.87-6.241-6.228-8.506
						c-0.213-1.346-0.371-3.067-1.005-4.478c-0.432-0.963-1.617-1.849-2.245-2.333c-1.55-1.194-5.603,0.298-7.272-1.789
						c-1.43-1.788-2.026-5.543-3.933-6.019c-0.867-0.218-2.533-0.567-4.057-0.256c-2.189,0.447-3.835,1.768-5.539,1.566
						c-2.38-0.278-4.411-4.053-7.63-3.813c-3.201,0.236-7.271,5.721-11.682,10.49c-4.411,4.769-12.241,10.791-17.762,20.504
						c-4.002,7.042-7.272,15.379-5.603,27.18c1.67,11.802,4.576,19.755,14.067,28.43c9.761,8.924,17.642,11.504,23.483,13.531
						c5.843,2.026,9.894,3.917,16.213,4.113c2.178,0.067,6.815,0.211,8.353,0.045c3.893-0.418,3.101-2.131,6.727-2.729
						c14.125-2.324,24.183-9.698,30.296-15.924c1.555-1.584,5.636-5.941,6.397-6.693c0.191,1.085,0.249,4.567,0.125,5.472
						c-0.847,6.201-4.716,9.672-10.917,12.979c-8.851,4.72-21.703,11.658-30.516,17.826c-8.152,5.708-15.341,11.255-17.87,20.358
						c-2.529,9.104-2.022,14.329,0.759,20.609c2.538,5.728,7.165,11.843,14.919,16.311c6.415,3.695,12.029,6.945,18.217,10.123
						c4.258,2.187,11.707,5.892,11.033,13.647c-0.683,7.863-5.774,12.023-9.229,13.529c-5.935,2.589-14.067,3.265-14.416,3.541
						c-0.612,0.489,7.08,6.991,12.982,6.953c6.446-0.04,8.731-0.474,14.708-2.569c5.198-1.822,7.461-6.364,8.304-6.533
						c0.843-0.169,2.077-0.069,3.203-0.887c1.099-0.798,4.593-3.499,5.014-5.1c0.421-1.602,0.507-4.298,0.928-5.732
						c0.421-1.433,2.107-6.279,2.191-8.891c0.085-2.614,0.761-8.599-1.581-12.034c-1.94-2.847-0.928-4.342-2.551-5.879
						c-0.269-0.256-1.631-2.06-2.878-2.527c-1.613-0.603-2.456-0.076-3.612-0.718c-1.846-1.026-4.051-7.945-6.717-8.137
						c-0.972-0.069-2.102-0.011-3.085,0.225c-2.191,0.529-11.783,0.778-13.506,0.114c-2.665-1.026-11.358-6.575-10.621-14.583
						c0.636-6.88,5.536-11.562,12.179-13.994c5.933-2.171,8.008-1.98,12.054-3.919c3.99-1.911,6.787-4.34,9.821-5.941
						c3.034-1.602,7.143-3.519,10.261-6.133c1.779-1.49,3.561-3.179,5.245-5.298c1.443-1.809,4.199-6.722,7.14-9.158
						c4.024,6.153,7.957,11.571,10.861,14.939c7.374,8.555,17.448,13.76,22.168,16.71c4.72,2.949,15.55,11.068,20.19,17.557
						c4.974,6.953,2.696,16.478-0.044,20.102c-2.371,3.139-7.754,7.209-15.172,7.04c-7.934-0.18-15.535-3.435-20.188-9.442
						c-4.636-5.986-6.442-17.223-2.487-20.188c4.253-3.188,8.421-1.67,11.042-1.35c2.053,0.251,4.004-0.843,4.342-2.529
						c0.336-1.686-0.211-3.71-2.487-5.479c-1.208-0.939-3.43-2.496-6.495-2.458c-1.68,0.02-4.847,0.834-9.142,0.685
						c-4.56-0.158-9.051,0.329-13.175,4.142c-3.392,3.139-5.339,5.617-6.608,9.549c-0.483,1.495,0.102,4.711-0.1,6.624
						c-0.202,1.933-0.999,3.446-1.014,4.934c-0.024,2.211,0.338,4.918,0.841,7.559c0.561,2.941,1.63,6.339,2.954,9.347
						c0.541,1.232,0.977,2.919,1.673,3.666c0.845,0.91,2.46,1.851,3.991,3.345c2.898,2.827,6.259,6.477,8.908,7.525
						c3.29,1.303,9.947-0.97,11.802-0.38c1.853,0.589,4.235,3.494,7.1,3.41c2.867-0.084,20.431-0.91,26.49-3.326
						c7.57-3.021,20.629-11.342,23.196-22.924c3.165-14.28-2.834-24.05-8.855-31.197c-7.434-8.824-21.381-20.222-31.904-27.773
						c-6.028-4.324-8.313-7.614-10.644-11.54c-1.771-2.983-3.648-8.023-2.707-12.646c4.337,2.271,10.532,9.342,12.345,11.6
						c2.335,2.905,5.31,4.673,7.612,5.803c2.037,1.001,4.58,0.427,6.518,0.765c1.938,0.336,0.55,1.924,4.006,3.105
						c3.457,1.179,18.736,4.004,22.413,3.875c1.502-0.053,3.515-1.217,5.892-1.962c2.276-0.714,6.168-1.034,16.976-5.256
						c14.821-5.79,21.049-15.232,26.058-26.523c5.009-11.291,1.617-25.709-1.304-32.26s-8.655-15.246-14.556-24.266
						c-5.901-9.02-13.295-18.227-9.998-36.713s17.408-24.155,19.414-27.553c1.604-2.72-3.17-5.47-4.36-6.037
						c-1.444-0.685-3.014-1.219-6.807-1.386c-0.236-0.011-0.467-0.013-0.689-0.004c-3.343,0.12-5.123,2.218-6.5,2.68
						c-1.493,0.5-8.039,0.104-8.946,0.293c-0.992,0.207-2.731,2.302-3.103,2.836c-0.65,0.939-0.149,1.174-1.076,3.114
						c-0.928,1.938-7.541,7.454-9.353,10.893c-0.97,1.842,0.118,5.652-1.063,8.181c-1.179,2.529-4.72,2.405-5.474,5.178
						c-0.554,2.04,0.505,8.593-0.387,11.791c-0.925,3.314-2.843,1.82-2.963,5.2c-0.169,4.762,8.25,12.354,9.683,14.545
						c1.433,2.193,2.009,3.483,3.781,7.489c1.977,4.469,4.638,7.254,6.64,9.525c2.004,2.271,7.516,5.75,8.94,8.184
						c0.79,1.354-0.071,3.939,0.465,5.634c0.505,1.602,1.953,3.005,4.228,6.293c2.276,3.286,1.513,11.842-0.545,17.012
						c-2.058,5.172-7.667,12.025-17.261,14.717c-9.594,2.692-33.684,0.489-43.331-24.822c-4.437-11.642-2.4-25.262,7.966-35.977
						c10.365-10.715,18.097-27.104,18.122-44.176c0-36.219-30.741-65.579-67.487-65.579s-66.535,29.36-66.535,65.579
						C112.463,111.203,119.477,127.868,132.242,140.329z"/>
				</g>
			</g>
			<g>
				<g>
					<path fill="#FFFFFF" d="M168.976,66.717c17.999,0,32.591,14.59,32.591,32.591c0,17.999-14.592,32.589-32.591,32.589
						s-32.591-14.59-32.591-32.589C136.385,81.307,150.977,66.717,168.976,66.717"/>
				</g>
			</g>
			<g>
				<g>
					<path fill="#1386C8" d="M164.751,96.507c4.12,0,7.46,3.339,7.46,7.46c0,4.12-3.339,7.46-7.46,7.46
						c-4.12,0-7.46-3.339-7.46-7.46C157.292,99.847,160.631,96.507,164.751,96.507"/>
				</g>
			</g>
		</g>
	</g>
</g>
</svg>
